<svg xmlns="http://www.w3.org/2000/svg" xmlns:xlink="http://www.w3.org/1999/xlink" viewBox="0 0 1316 1196.25" version="1.1" xml:space="preserve" style="" x="0px" y="0px" fill-rule="evenodd" clip-rule="evenodd" stroke-linecap="round" stroke-linejoin="round" stroke-miterlimit="1.41421"><g transform="matrix(1,0,0,1,-938,-1016)"><g transform="matrix(1,0,0,1,-528.457,-878.991)"><path d="M2626.65,2626.97C2641.72,2581.53 2650.49,2666.1 2650.49,2666.1C2301.62,2833.3 1615.42,2669.6 1604.36,2666.1C1593.29,2662.61 1617.89,2626.97 1617.89,2626.97C1617.89,2626.97 1942.94,2712.04 2235.04,2711.72C2377.74,2711.57 2621.7,2641.89 2626.65,2626.97Z" style="" fill="black" stroke-width="4.17px" stroke="black"/><g transform="matrix(0.901869,0,0,0.661911,204.099,797.186)"><path d="M1892.85,2357.91L1656.64,2357.91C1626.64,2610.14 1543.76,2848.54 1420.05,3076.27C1893,3044.31 2365.89,3043.8 2838.7,3076.27C2705.25,2838.89 2622.93,2599.59 2603.96,2357.91L2367.04,2357.91" style="" fill="none" stroke-width="26.34px" stroke="rgb(35,31,32)"/></g><g transform="matrix(1.58156,0,0,1.56173,-1024.18,-1029.91)"><path d="M1934.2,1884.73C1970.99,1869.37 2012.39,1869.37 2049.18,1884.73C2049.4,1884.83 2049.62,1884.92 2049.85,1885.01C2089.91,1901.74 2120.79,1934.97 2134.53,1976.15C2148.28,2017.33 2143.55,2062.44 2121.56,2099.88C2074.41,2180.16 2025.73,2263.04 2025.73,2263.04L1991.69,2321C1991.69,2321 1922.22,2202.71 1861.87,2099.97C1839.87,2062.51 1835.14,2017.37 1848.89,1976.16C1862.65,1934.96 1893.54,1901.71 1933.63,1884.97C1933.82,1884.89 1934.01,1884.81 1934.2,1884.73ZM1991.7,1945.51C2033.57,1945.51 2066.35,1978.54 2066.35,2020.98C2066.35,2063.43 2033.57,2096.45 1991.7,2096.45C1949.84,2096.45 1916.78,2063.43 1916.78,2020.98C1916.78,1978.54 1949.84,1945.51 1991.7,1945.51Z" style="" fill="black"/></g></g></g></svg>