<svg xmlns="http://www.w3.org/2000/svg" xmlns:xlink="http://www.w3.org/1999/xlink" version="1.1" x="0px" y="0px" viewBox="0 0 166.047 308.635" style="enable-background:new 0 0 166.047 246.908;" xml:space="preserve"><g><ellipse transform="matrix(0.7065 -0.7077 0.7077 0.7065 -13.0041 119.5322)" cx="137.613" cy="75.445" rx="1.206" ry="1.207"/><path d="M145.628,52.749c-1.755-0.755-3.322-1.141-4.591-1.339c-0.686-0.2-1.41-0.313-2.161-0.313h-6.633   c-0.172,1.109-0.415,2.611-0.724,4.398c-0.244,1.414-0.529,2.999-0.855,4.707c-2.151,11.289-6.031,27.743-11.106,32.818   c-6.815-6.813-11.477-34.137-12.687-41.924h-6.633c-0.24,0-0.477,0.015-0.711,0.036c-0.005,0.013-0.01,0.024-0.015,0.037   c-0.174,0.005-0.349,0.021-0.523,0.037c-1.098,0.104-2.191,0.43-3.211,1.012c-0.053,0.031-0.169,0.1-0.317,0.189   c-0.667,0.403-2.251,1.409-4.339,3.082c-2.308,1.848-5.215,4.502-8.161,8.072c-1.184,1.43-2.371,3.021-3.517,4.768   c-0.907,1.383-1.784,2.873-2.617,4.452c-0.885,1.678-1.72,3.455-2.469,5.351c-0.771,1.95-1.448,4.021-2.018,6.199   c-1.058,4.047-1.711,8.485-1.786,13.302c-0.005,0.336-0.024,0.663-0.023,1.002c0,0.869,0.021,1.75,0.059,2.64   c0.226-0.041,0.447-0.056,0.665-0.046c0.552,0.024,1.073,0.191,1.523,0.553c0.123,0.099,0.215,0.215,0.314,0.328   c0.861,0.975,0.872,2.456,0.067,4.045c0.832,0.082,1.758,0.313,2.475,0.888c0.575,0.461,0.934,1.093,1.013,1.788   c0.16,1.502-0.94,2.739-2.826,3.357c1.261,1.537,1.523,3.174,0.575,4.355c-0.317,0.396-0.718,0.663-1.172,0.821   c0.118,0.425,0.254,0.856,0.381,1.285c7.318-8.023,11.185-15.376,11.537-21.917c0.005-0.043,0.009-0.087,0.014-0.129   c0.277-2.185,0.692-4.231,1.222-6.143c0.49,1.567,0.808,3.336,0.803,5.316c-0.001,1.405-0.159,2.974-0.548,4.702   c-1.184,5.26-4.54,12.029-12.346,20.377c-0.727,0.776-1.493,1.567-2.298,2.372c-0.223,0.223-0.442,0.444-0.671,0.669   c-0.352,0.345-0.628,0.732-0.867,1.137c-1.24,2.091-0.999,4.823,0.78,6.644c0.469,0.48,1.013,0.836,1.586,1.107   c0.714,0.338,1.479,0.525,2.254,0.538c0.031,0,0.062,0.009,0.093,0.009c1.262,0,2.513-0.454,3.537-1.32   c0.101-0.085,0.212-0.152,0.308-0.246c3.139-3.061,5.804-6.035,8.089-8.929c1.451-1.837,2.748-3.642,3.885-5.408   c0.258-0.401,0.505-0.8,0.748-1.198c0.267-0.438,0.533-0.874,0.781-1.307c3.532-6.149,5.224-11.832,5.586-16.982   c0.052-0.731,0.084-1.454,0.083-2.164c-0.012-7.746-2.956-13.503-5.669-17.206c-0.131-0.178-0.261-0.359-0.391-0.528   c0.13-0.195,0.26-0.385,0.391-0.574c0.268-0.391,0.537-0.771,0.807-1.142c3.311,4.146,6.849,10.636,6.862,19.449   c0.001,0.358-0.025,0.719-0.036,1.078c-0.227,7.095-2.747,14.379-7.545,21.785c2.072,5.475,4.918,11.182,8.572,17.104   c2.274,3.686,1.853,8.276-0.699,11.483c-0.699,0.878-1.548,1.658-2.556,2.28c-1.582,0.978-3.397,1.494-5.247,1.494   c-0.053,0-0.105-0.009-0.158-0.01v39.444l-16.835-55.126c-0.17,0.012-0.341,0.024-0.513,0.024c-0.554,0-1.097-0.064-1.624-0.181   l18.972,62.125l10.485,34.336v0.006c0,2.618-2.516,4.749-5.608,4.749c-1.613,0-3.152-0.593-4.221-1.63l-0.656-0.638l-0.734-0.713   l-1.393,1.349c-1.072,1.039-2.61,1.632-4.221,1.632c-1.609,0-3.147-0.593-4.22-1.632l-1.391-1.347l-1.391,1.347   c-1.073,1.039-2.61,1.632-4.22,1.632c-0.614,0-1.208-0.111-1.778-0.275c-0.928-0.266-1.78-0.713-2.444-1.356l-1.391-1.347   l-1.391,1.347c-1.072,1.039-2.61,1.632-4.219,1.632c-1.611,0-3.149-0.593-4.222-1.632l-1.391-1.347l-1.391,1.347   c-0.922,0.894-2.193,1.43-3.553,1.57c-0.222,0.023-0.441,0.061-0.667,0.061c-0.945,0-1.851-0.225-2.666-0.604   c-0.575-0.267-1.111-0.599-1.555-1.028l-1.391-1.347l-1.391,1.347c-1.072,1.039-2.61,1.632-4.221,1.632   c-1.609,0-3.147-0.593-4.22-1.632l-1.394-1.349l-1.391,1.351c-1.068,1.037-2.605,1.63-4.217,1.63c-0.075,0-0.147-0.017-0.223-0.02   c-1.528-0.053-2.976-0.621-3.998-1.611l-1.391-1.347l-1.391,1.347c-1.072,1.039-2.61,1.632-4.221,1.632   c-1.611,0-3.149-0.593-4.223-1.632l-1.391-1.347l-1.391,1.347c-1.072,1.039-2.609,1.632-4.218,1.632   c-3.093,0-5.61-2.131-5.61-4.749v-0.004L33.93,127.053c-0.605-0.313-1.219-0.625-1.8-0.944L0.087,231.037L0,231.322v0.299   c0,3.722,3.415,6.75,7.611,6.75c2.218,0,4.218-0.848,5.609-2.195c1.393,1.348,3.393,2.195,5.612,2.195   c2.219,0,4.219-0.848,5.611-2.195c1.37,1.326,3.329,2.164,5.507,2.19c0.707,4.83,4.855,8.542,9.882,8.542   c5.181,0,9.443-3.942,9.949-8.992c0.845,0.289,1.758,0.455,2.717,0.455c0.264,0,0.523-0.014,0.78-0.037   c0.693,4.846,4.849,8.574,9.887,8.574c5.097,0,9.297-3.818,9.914-8.75c0.597,0.134,1.219,0.213,1.863,0.213   c2.22,0,4.22-0.848,5.611-2.195c1.393,1.348,3.393,2.195,5.612,2.195c2.217,0,4.217-0.848,5.609-2.195   c0.3,0.29,0.632,0.552,0.985,0.792c1.144,5.646,6.133,9.896,12.116,9.896c6.828,0,12.363-5.534,12.363-12.363v-87.272h4.637V234.5   c0,6.829,5.535,12.363,12.363,12.363c6.828,0,12.363-5.534,12.363-12.363v-95v-31.221V78.237   c1.904,5.764,3.458,14.575,3.445,27.638c0,8.705-0.674,19.271-2.317,32.015c-0.567,4.384,2.528,8.393,6.91,8.959   c0.346,0.045,0.691,0.066,1.03,0.066c3.965,0,7.407-2.942,7.929-6.979c1.714-13.306,2.447-24.531,2.447-34.062   c-0.025-23.751-4.49-37.2-10.694-45.313C152.264,56.549,148.713,54.063,145.628,52.749z M137.616,77.72   c0.011,9.669-11.947-2.261-2.278-2.272c-9.669,0.012,2.262-11.947,2.273-2.277c-0.011-9.67,11.947,2.262,2.277,2.271   C149.558,75.432,137.627,87.389,137.616,77.72z"/><circle cx="119.558" cy="22.5" r="22.5"/><polygon points="118.558,55 111.728,51.098 111.558,51 111.558,51.098 111.558,60 118.558,56  "/><polygon points="120.558,56 127.558,60 127.558,51.098 127.558,51 127.387,51.098 120.558,55  "/><circle cx="119.558" cy="63.5" r="2"/><circle cx="119.558" cy="70.5" r="2"/><circle cx="119.558" cy="78.5" r="2"/><path d="M94.892,50.437c-1.286-4.338-2.92-9.118-4.97-13.921c-3.395-7.93-7.913-15.935-14.008-22.09   C69.844,8.279,62.017,3.984,52.499,3.999c-9.52-0.015-17.347,4.28-23.417,10.427C10.948,32.893,6.131,67.943,6.025,68.141   c-0.199,1.365,0.748,2.635,2.114,2.832c0.123,0.018,0.244,0.026,0.364,0.026c1.222,0,2.29-0.896,2.471-2.14   c0-0.003,0.129-0.91,0.438-2.568c1.069-5.803,4.283-20.468,10.883-33.441c3.292-6.489,7.427-12.532,12.426-16.859   c5.018-4.331,10.783-6.979,17.777-6.992c7.98,0.015,14.402,3.471,19.864,8.949c8.169,8.201,13.707,20.979,17.057,31.687   c0.406,1.29,0.779,2.548,1.125,3.766c1.957-1.516,3.465-2.459,4.181-2.882C94.781,50.486,94.838,50.467,94.892,50.437z"/><circle cx="52.499" cy="37" r="22.5"/><path d="M70.023,116.925c-0.12,1.219-0.539,2.185-1.196,2.791l0.903,2.959c0.064-0.068,0.122-0.14,0.19-0.206   c0.483-0.474,0.945-0.943,1.405-1.413l-1.253-4.104C70.056,116.943,70.039,116.933,70.023,116.925z"/><path d="M85.856,145.203c1.483,2.4,4.03,3.736,6.656,3.789c0.053,0.001,0.105,0.01,0.158,0.01c1.435,0,2.886-0.386,4.196-1.195   c0.431-0.266,0.823-0.569,1.184-0.898c2.793-2.541,3.476-6.782,1.421-10.111c-2.797-4.535-5.098-9.742-6.96-14.875   c-0.251-0.692-0.492-1.382-0.728-2.069c-1.709,2.515-3.679,5.042-5.908,7.581c-1.683,1.917-3.495,3.84-5.472,5.768   c-0.253,0.247-0.526,0.467-0.806,0.673c0.928,1.904,1.935,3.837,3.025,5.8C83.635,141.494,84.701,143.333,85.856,145.203z"/><path d="M43.087,136.223l5.589,2.182l15.229-20.748c-1.511,1.201-3.109,1.435-4.269,0.504c-1.162-0.933-1.278-2.549-0.425-4.289   c-0.462,0.071-0.949,0.026-1.419-0.156c-0.856-0.335-1.519-1.022-2.004-1.703c-1.086,1.662-2.568,2.402-3.978,1.853   c-1.41-0.55-1.999-2.099-1.674-4.058c-0.819,0.172-1.771,0.23-2.627-0.104c-0.469-0.184-0.858-0.479-1.151-0.847   c-0.551,1.858-1.732,2.97-3.218,2.868c-1.483-0.101-2.502-1.355-2.8-3.264l-0.527,4.742c2.236,1.213,4.826,2.452,7.854,3.686   c3.829,1.564,5.672,5.951,4.107,9.779c-1.157,2.835-3.884,4.668-6.945,4.668c-0.973,0-1.924-0.188-2.83-0.559   c-1.367-0.559-2.674-1.132-3.948-1.714l-0.554,4.98L43.087,136.223z"/><path d="M45.17,102.492c0.242-0.257,0.409-0.583,0.469-0.951c0.009-0.057,0.025-0.111,0.029-0.169   c0.004-0.058-0.004-0.113-0.006-0.17c-0.01-0.373-0.131-0.72-0.336-1.007c-0.069-0.097-0.146-0.185-0.232-0.266   c-0.257-0.243-0.583-0.409-0.953-0.47c-0.056-0.009-0.11-0.024-0.167-0.028c-0.06-0.004-0.117,0.004-0.176,0.006   c-0.372,0.011-0.716,0.131-1.002,0.336c-0.096,0.069-0.184,0.146-0.265,0.231c-0.243,0.258-0.409,0.584-0.469,0.952   c-0.009,0.057-0.025,0.111-0.029,0.17c-0.004,0.058,0.004,0.112,0.005,0.169c0.009,0.374,0.131,0.72,0.337,1.008   c0.068,0.096,0.145,0.184,0.231,0.265c0.256,0.241,0.58,0.407,0.946,0.469c0.058,0.01,0.114,0.025,0.174,0.029   c0.06,0.004,0.117-0.004,0.175-0.006c0.371-0.011,0.715-0.132,1.001-0.336C45,102.655,45.088,102.578,45.17,102.492z"/><path d="M43.029,95.468c-0.003,0.032-0.009,0.063-0.011,0.096c-0.049,0.737,0.025,1.41,0.183,1.932   c0.145,0.483,0.362,0.832,0.628,0.964c0.066,0.033,0.135,0.06,0.207,0.064c0.071,0.005,0.141-0.013,0.209-0.035   c0.282-0.095,0.545-0.41,0.755-0.871c0.226-0.496,0.391-1.152,0.441-1.89c0.002-0.027,0.001-0.052,0.002-0.079   c0.088-1.552-0.36-2.835-1.019-2.88C43.77,92.724,43.155,93.926,43.029,95.468z"/><path d="M43.275,109.729c0.657,0.045,1.273-1.163,1.398-2.713c0.002-0.028,0.007-0.055,0.009-0.083   c0.03-0.438,0.013-0.851-0.036-1.228c-0.033-0.256-0.083-0.49-0.147-0.702c-0.146-0.484-0.363-0.833-0.63-0.965   c-0.066-0.032-0.133-0.059-0.205-0.063c-0.072-0.005-0.143,0.012-0.213,0.036c-0.281,0.095-0.543,0.41-0.753,0.869   c-0.183,0.4-0.322,0.906-0.396,1.475c-0.018,0.137-0.036,0.272-0.046,0.415c-0.002,0.028,0,0.056-0.002,0.084   C42.171,108.405,42.619,109.686,43.275,109.729z"/><path d="M46.044,98.139c-0.238,0.443-0.33,0.841-0.236,1.122c0.024,0.07,0.053,0.137,0.101,0.191   c0.047,0.054,0.109,0.092,0.176,0.125c0.039,0.02,0.084,0.03,0.129,0.043c0.191-0.248,0.436-0.445,0.707-0.612   c0.522-0.322,1.172-0.501,1.924-0.51c0.012-0.01,0.024-0.018,0.035-0.027c0.021-0.019,0.039-0.038,0.06-0.057   c0.325-0.291,0.6-0.595,0.825-0.894c-0.02-0.737,0.13-1.38,0.421-1.908c-0.482-0.402-1.706,0.013-2.84,0.978   c-0.021,0.019-0.043,0.033-0.064,0.052C46.725,97.127,46.302,97.657,46.044,98.139z"/><path d="M40.355,105.907c0.021-0.018,0.042-0.032,0.063-0.05c0.557-0.487,0.98-1.017,1.238-1.497   c0.238-0.444,0.33-0.843,0.236-1.123c-0.023-0.07-0.053-0.137-0.1-0.19c-0.047-0.055-0.11-0.093-0.176-0.126   c-0.266-0.131-0.673-0.094-1.145,0.082c-0.511,0.19-1.093,0.538-1.651,1.024c-0.021,0.019-0.039,0.038-0.06,0.057   c-1.157,1.037-1.746,2.259-1.312,2.756C37.882,107.335,39.173,106.917,40.355,105.907z"/><path d="M38.072,102.07c0.032,0.003,0.061,0.009,0.093,0.011c0.737,0.05,1.409-0.025,1.931-0.183   c0.485-0.146,0.833-0.363,0.964-0.63c0.032-0.066,0.059-0.133,0.063-0.204c0.005-0.071-0.012-0.142-0.035-0.211   c-0.094-0.282-0.41-0.545-0.871-0.755c-0.496-0.226-1.152-0.392-1.889-0.441c-0.032-0.002-0.063-0.001-0.094-0.002   c-1.546-0.082-2.822,0.364-2.865,1.019C35.326,101.33,36.529,101.944,38.072,102.07z"/><path d="M46.602,105.257c0.216-0.264,0.463-0.52,0.76-0.761c0.105-0.086,0.221-0.167,0.336-0.249   c-0.311-0.203-0.596-0.417-0.839-0.645c-0.121-0.112-0.221-0.231-0.324-0.349c-0.271-0.091-0.509-0.109-0.696-0.047   c-0.07,0.023-0.137,0.053-0.192,0.101c-0.054,0.048-0.093,0.11-0.125,0.177c-0.13,0.267-0.092,0.674,0.084,1.145   c0.099,0.265,0.239,0.546,0.421,0.836c0.064,0.104,0.132,0.207,0.207,0.312c0.073-0.124,0.158-0.245,0.248-0.366   C46.52,105.358,46.561,105.308,46.602,105.257z"/><path d="M38.261,94.846c-0.496,0.434-0.077,1.724,0.93,2.906c0.019,0.021,0.033,0.043,0.052,0.064   c0.486,0.558,1.016,0.981,1.497,1.239c0.444,0.237,0.842,0.329,1.123,0.235c0.07-0.023,0.137-0.053,0.191-0.101   c0.054-0.047,0.092-0.109,0.125-0.176c0.132-0.265,0.094-0.672-0.081-1.144c-0.191-0.512-0.539-1.094-1.025-1.651   c-0.019-0.021-0.038-0.039-0.057-0.06C39.979,95.001,38.757,94.412,38.261,94.846z"/><path d="M67.206,108.459c-0.312-0.206-0.665-0.305-1.019-0.3c-0.118,0.001-0.235,0.014-0.351,0.038   c-0.346,0.072-0.669,0.244-0.929,0.513c-0.04,0.041-0.083,0.077-0.12,0.122c-0.036,0.045-0.062,0.096-0.093,0.143   c-0.205,0.313-0.304,0.666-0.299,1.02c0.001,0.117,0.014,0.234,0.039,0.35c0.072,0.344,0.243,0.666,0.509,0.926   c0.042,0.041,0.079,0.086,0.125,0.123c0.046,0.037,0.098,0.063,0.147,0.096c0.311,0.203,0.662,0.301,1.014,0.297   c0.118-0.002,0.235-0.015,0.35-0.039c0.347-0.071,0.67-0.244,0.93-0.513c0.039-0.041,0.083-0.076,0.119-0.121   c0.037-0.046,0.062-0.096,0.094-0.144c0.206-0.313,0.304-0.665,0.3-1.019c-0.001-0.118-0.014-0.234-0.039-0.35   c-0.072-0.345-0.243-0.667-0.509-0.926c-0.042-0.041-0.079-0.086-0.125-0.123C67.304,108.516,67.254,108.49,67.206,108.459z"/><path d="M68.83,104.771c-0.017,0.021-0.036,0.04-0.053,0.062c-0.462,0.576-0.785,1.171-0.954,1.688   c-0.158,0.481-0.179,0.892-0.035,1.152c0.036,0.064,0.075,0.124,0.131,0.169c0.056,0.045,0.124,0.071,0.195,0.092   c0.285,0.083,0.681-0.026,1.116-0.284c0.129-0.076,0.261-0.166,0.396-0.269c0.352-0.268,0.712-0.612,1.047-1.029   c0.021-0.025,0.037-0.052,0.057-0.077c0.084-0.107,0.163-0.215,0.237-0.323c0.771-1.119,1.031-2.233,0.563-2.608   c-0.191-0.154-0.479-0.159-0.815-0.047c-0.002,0.001-0.003,0.001-0.005,0.001C70.144,103.488,69.446,104.021,68.83,104.771z"/><path d="M63.585,115.176c0.018-0.022,0.038-0.041,0.056-0.063c0.089-0.111,0.168-0.225,0.247-0.337   c0.331-0.468,0.571-0.935,0.708-1.353c0.157-0.479,0.178-0.89,0.035-1.149c-0.036-0.065-0.077-0.126-0.133-0.171   c-0.056-0.045-0.123-0.07-0.193-0.091c-0.285-0.084-0.681,0.025-1.116,0.282c-0.19,0.113-0.386,0.252-0.584,0.418   c-0.291,0.244-0.583,0.538-0.857,0.88c-0.018,0.021-0.031,0.044-0.048,0.065c-0.958,1.224-1.323,2.532-0.81,2.944   C61.402,117.014,62.599,116.374,63.585,115.176z"/><path d="M64.382,103.224c-0.037,0.372-0.04,0.782,0.002,1.215c0.002,0.028,0.002,0.055,0.005,0.083   c0.002,0.016,0.005,0.029,0.007,0.045c0.548,0.516,0.905,1.086,1.071,1.676c0.086,0.308,0.133,0.618,0.105,0.931   c0.041,0.021,0.082,0.043,0.123,0.056c0.071,0.021,0.143,0.035,0.214,0.027c0.072-0.008,0.139-0.037,0.204-0.073   c0.259-0.143,0.461-0.498,0.586-0.985c0.136-0.528,0.184-1.206,0.104-1.941c-0.003-0.027-0.009-0.053-0.012-0.08   c-0.18-1.477-0.799-2.611-1.426-2.643C65.223,102.119,64.897,102.694,64.382,103.224z"/><path d="M68.034,115.506c-0.003-0.028-0.003-0.056-0.006-0.084c-0.046-0.415-0.127-0.803-0.233-1.15   c-0.082-0.27-0.18-0.51-0.288-0.722c-0.228-0.448-0.502-0.752-0.787-0.835c-0.071-0.021-0.143-0.035-0.214-0.027   c-0.071,0.008-0.138,0.037-0.203,0.073c-0.259,0.144-0.461,0.499-0.587,0.985c-0.136,0.529-0.183,1.206-0.103,1.941   c0.003,0.027,0.009,0.052,0.012,0.079c0.187,1.542,0.853,2.727,1.508,2.655c0.422-0.047,0.737-0.604,0.867-1.408   C68.073,116.571,68.087,116.055,68.034,115.506z"/><path d="M72.244,113.417c-0.229-0.275-0.505-0.552-0.824-0.815c-0.024-0.02-0.045-0.041-0.071-0.062   c-0.288-0.231-0.581-0.426-0.867-0.587c-0.286-0.162-0.563-0.283-0.821-0.368c-0.474-0.155-0.88-0.179-1.141-0.043   c-0.004,0.002-0.006,0.006-0.01,0.009c-0.064,0.035-0.125,0.075-0.169,0.131c-0.045,0.056-0.071,0.123-0.092,0.194   c-0.047,0.158-0.033,0.352,0.032,0.567c0.051,0.172,0.136,0.355,0.251,0.549c0.277,0.467,0.72,0.976,1.293,1.437   c0.002,0.002,0.004,0.003,0.005,0.005c0.025,0.02,0.05,0.035,0.075,0.055c1.123,0.877,2.305,1.245,2.809,0.901   c0.044-0.03,0.092-0.057,0.126-0.098C73.14,114.917,72.874,114.175,72.244,113.417z"/><path d="M63.493,110.27c-0.008-0.071-0.037-0.139-0.073-0.203c-0.095-0.173-0.282-0.32-0.542-0.438   c-0.157,0.018-0.311,0.036-0.477,0.038c-0.332,0.003-0.686-0.033-1.051-0.094c0.028,0.133,0.051,0.268,0.071,0.406   c0.051,0.347,0.077,0.706,0.057,1.069c-0.003,0.068-0.016,0.136-0.022,0.203c-0.015,0.146-0.033,0.292-0.065,0.437   c0.125-0.025,0.245-0.056,0.362-0.088c0.33-0.09,0.625-0.202,0.876-0.33c0.449-0.228,0.752-0.502,0.836-0.786   C63.487,110.413,63.501,110.341,63.493,110.27z"/><path d="M71.742,108.146c-0.028,0.003-0.054,0.003-0.083,0.006c-0.061,0.007-0.117,0.019-0.176,0.027   c-0.072,0.01-0.144,0.021-0.214,0.032c-0.575,0.098-1.084,0.26-1.482,0.462c-0.264,0.135-0.476,0.284-0.623,0.443   c-0.104,0.111-0.177,0.227-0.211,0.343c-0.021,0.071-0.035,0.143-0.027,0.214c0.006,0.051,0.032,0.098,0.052,0.146   c0.008,0.019,0.011,0.04,0.021,0.059c0.143,0.26,0.498,0.461,0.985,0.587c0.255,0.065,0.542,0.112,0.859,0.131   c0.259,0.016,0.538,0.009,0.824-0.012c0.086-0.006,0.169-0.007,0.257-0.017c0.029-0.003,0.055-0.009,0.083-0.013   c1.542-0.188,2.723-0.854,2.652-1.509C74.586,108.392,73.288,107.996,71.742,108.146z"/><path d="M54.007,103.269c-0.026,0.051-0.057,0.098-0.078,0.151c-0.021,0.055-0.03,0.11-0.046,0.165   c-0.103,0.359-0.091,0.726,0.02,1.062c0.037,0.112,0.083,0.22,0.141,0.322c0.172,0.307,0.431,0.563,0.763,0.73   c0.052,0.026,0.101,0.059,0.156,0.08c0.056,0.021,0.113,0.031,0.169,0.047c0.357,0.102,0.721,0.089,1.056-0.021   c0.112-0.037,0.22-0.084,0.323-0.142c0.309-0.173,0.566-0.434,0.733-0.768c0.026-0.051,0.057-0.098,0.078-0.152   c0.021-0.054,0.03-0.109,0.045-0.163c0.103-0.359,0.091-0.726-0.02-1.061c-0.037-0.112-0.084-0.22-0.142-0.323   c-0.173-0.309-0.434-0.565-0.768-0.733c-0.051-0.025-0.098-0.056-0.152-0.077c-0.056-0.021-0.112-0.031-0.169-0.047   c-0.357-0.102-0.722-0.089-1.056,0.021c-0.112,0.037-0.219,0.084-0.323,0.142C54.431,102.674,54.175,102.935,54.007,103.269z"/><path d="M56.131,100.307c-0.006,0.505,0.097,0.902,0.311,1.107c0.053,0.052,0.11,0.097,0.176,0.123   c0.066,0.026,0.139,0.03,0.212,0.029c0.297-0.006,0.643-0.228,0.981-0.604c0.364-0.405,0.718-0.982,0.986-1.67   c0.01-0.025,0.016-0.05,0.026-0.075c0.548-1.455,0.505-2.813-0.108-3.053c-0.613-0.239-1.56,0.725-2.141,2.158   c-0.012,0.03-0.027,0.058-0.039,0.088C56.268,99.098,56.138,99.762,56.131,100.307z"/><path d="M52.537,112.001c0.613,0.24,1.564-0.729,2.146-2.17c0.011-0.025,0.023-0.049,0.033-0.075   c0.269-0.688,0.398-1.352,0.404-1.896c0.006-0.506-0.098-0.903-0.313-1.108c-0.053-0.051-0.109-0.097-0.176-0.122   c-0.067-0.026-0.14-0.031-0.213-0.029c-0.297,0.006-0.641,0.229-0.979,0.604c-0.364,0.405-0.718,0.982-0.986,1.67   c-0.01,0.026-0.017,0.052-0.027,0.078C51.88,110.406,51.922,111.762,52.537,112.001z"/><path d="M60.356,100.686c-0.025,0.011-0.049,0.018-0.075,0.029c-0.677,0.297-1.24,0.676-1.63,1.058   c-0.36,0.352-0.567,0.704-0.561,1c0.001,0.074,0.009,0.146,0.038,0.212c0.029,0.066,0.077,0.121,0.131,0.173   c0.002,0.003,0.003,0.006,0.006,0.008c0.216,0.2,0.614,0.283,1.111,0.257c0.545-0.028,1.204-0.186,1.881-0.482   c0.026-0.012,0.049-0.025,0.075-0.037c0.128-0.058,0.252-0.119,0.372-0.183c0.311-0.165,0.588-0.345,0.829-0.532   c0.687-0.533,1.055-1.114,0.877-1.52c-0.026-0.059-0.071-0.106-0.116-0.153C62.872,100.077,61.648,100.137,60.356,100.686z    M58.292,103.138c0.184-0.108,0.362-0.238,0.538-0.387C58.655,102.899,58.477,103.029,58.292,103.138z"/><path d="M53.125,105.181c-0.029-0.065-0.077-0.121-0.131-0.172c-0.215-0.205-0.615-0.291-1.118-0.265   c-0.264,0.014-0.551,0.056-0.859,0.133c-0.328,0.081-0.672,0.196-1.022,0.35c-0.026,0.012-0.049,0.025-0.075,0.037   c-0.046,0.021-0.088,0.043-0.133,0.064c-0.221,0.106-0.428,0.22-0.62,0.34c-0.867,0.541-1.403,1.185-1.354,1.665   c0.006,0.056,0.007,0.114,0.03,0.165c0.265,0.603,1.621,0.591,3.052-0.018c0.025-0.011,0.05-0.019,0.076-0.029   c0.239-0.104,0.458-0.222,0.667-0.344c0.384-0.223,0.711-0.467,0.964-0.714c0.183-0.179,0.323-0.357,0.418-0.528   c0.093-0.167,0.147-0.327,0.144-0.473C53.162,105.318,53.154,105.246,53.125,105.181z"/><path d="M58.171,105.076c-0.026,0.066-0.031,0.139-0.029,0.212c0.006,0.298,0.229,0.644,0.605,0.982   c0.405,0.364,0.982,0.718,1.669,0.985c0.03,0.012,0.059,0.02,0.089,0.03c0.067,0.025,0.134,0.046,0.201,0.069   c0.167,0.057,0.332,0.105,0.494,0.146c0.736,0.186,1.392,0.207,1.829,0.068c0.073-0.023,0.14-0.05,0.2-0.082   c0.149-0.079,0.263-0.181,0.316-0.315c0.165-0.422-0.249-1.003-0.988-1.516c-0.332-0.229-0.727-0.445-1.171-0.626   c-0.029-0.012-0.056-0.026-0.086-0.038c-0.585-0.229-1.154-0.356-1.648-0.395c-0.086-0.007-0.167-0.009-0.248-0.01   c-0.506-0.006-0.904,0.097-1.109,0.312C58.243,104.953,58.197,105.01,58.171,105.076z"/><path d="M50.835,100.91c-0.03-0.012-0.06-0.02-0.089-0.03c-0.449-0.169-0.885-0.277-1.285-0.332   c-0.891-0.124-1.589,0.023-1.754,0.445c-0.053,0.135-0.037,0.287,0.019,0.446c0.022,0.063,0.054,0.129,0.091,0.194   c0.227,0.398,0.724,0.826,1.39,1.188c0.147,0.081,0.302,0.156,0.465,0.229c0.064,0.028,0.127,0.059,0.194,0.085   c0.029,0.013,0.056,0.026,0.086,0.038c0.688,0.269,1.351,0.398,1.896,0.405c0.506,0.006,0.904-0.098,1.11-0.313   c0.051-0.053,0.096-0.109,0.122-0.176c0.026-0.066,0.031-0.139,0.029-0.213c-0.006-0.297-0.229-0.643-0.605-0.98   c-0.06-0.054-0.121-0.108-0.189-0.161C51.927,101.43,51.42,101.139,50.835,100.91z"/><path d="M59.041,111.867c0.051-0.022,0.092-0.064,0.134-0.102c0.361-0.321,0.401-1.158,0.129-2.144   c-0.06-0.218-0.136-0.441-0.227-0.669c-0.018-0.046-0.034-0.092-0.054-0.138c-0.011-0.026-0.018-0.052-0.03-0.077   c-0.153-0.35-0.329-0.668-0.515-0.95c-0.174-0.266-0.357-0.49-0.542-0.68c-0.352-0.359-0.705-0.567-1.001-0.563   c-0.075,0.001-0.147,0.009-0.213,0.038c-0.066,0.029-0.121,0.077-0.172,0.131c-0.1,0.105-0.168,0.259-0.213,0.444   c-0.046,0.191-0.063,0.417-0.05,0.673c0.019,0.353,0.094,0.752,0.225,1.176c0.072,0.231,0.154,0.467,0.259,0.706   c0.011,0.025,0.024,0.047,0.035,0.071C57.446,111.202,58.438,112.132,59.041,111.867z"/><path d="M52.226,99.349c0.011,0.026,0.019,0.053,0.031,0.079c0.297,0.678,0.676,1.24,1.058,1.63   c0.348,0.355,0.697,0.563,0.991,0.563c0.004,0,0.007-0.002,0.01-0.002c0.074-0.001,0.147-0.009,0.213-0.038   c0.066-0.029,0.121-0.077,0.172-0.131c0.205-0.214,0.291-0.613,0.265-1.115c-0.028-0.545-0.186-1.205-0.483-1.883   c-0.011-0.025-0.024-0.048-0.036-0.073c-0.579-1.278-1.44-2.149-2.046-2.113c-0.065,0.004-0.131,0.009-0.19,0.034   c-0.406,0.178-0.528,0.855-0.384,1.712c0.051,0.301,0.132,0.621,0.25,0.954C52.122,99.092,52.171,99.22,52.226,99.349z    M54.171,100.936c0.028,0.226,0.071,0.439,0.132,0.643C54.242,101.375,54.199,101.162,54.171,100.936z"/><path d="M34.521,125.118c1.199,0.629,2.452,1.247,3.762,1.856c1.425,0.662,2.91,1.313,4.47,1.951   c0.681,0.277,1.385,0.409,2.076,0.409c2.169,0.001,4.225-1.291,5.095-3.422c1.148-2.813-0.2-6.024-3.013-7.173   c-2.732-1.113-5.163-2.249-7.336-3.392c-0.852-0.449-1.673-0.898-2.445-1.348c-0.876-0.511-1.699-1.021-2.477-1.531   c-3.294-2.161-5.722-4.304-7.456-6.329c-0.44-0.519-0.837-1.027-1.197-1.528c-2.444-3.389-3.174-6.39-3.205-9.323   c-0.013-3.516,1.267-7.07,2.983-10.061c0.341-0.598,0.742-1.163,1.19-1.705l6.893,25.96c0.763,0.559,1.603,1.133,2.526,1.719   l-2.309-8.7c-0.496-0.552-0.754-1.218-0.703-1.961c0.009-0.138,0.05-0.262,0.079-0.392l-3.836-14.449   c4.396-2.5,12.994-4.199,22.883-4.199c6.95,0,13.254,0.841,17.919,2.207c0.584-2.225,1.284-4.315,2.061-6.283   c0.745-1.886,1.558-3.659,2.419-5.31c0.854-1.637,1.751-3.15,2.664-4.556c-2.258-0.86-4.528-1.513-6.718-2.018   c-6.101-1.385-11.707-1.63-15.181-1.633c-1.668,0-2.833,0.06-3.326,0.09c-0.013,0-0.021,0-0.035,0   c-1.422,0.006-7.794,0.08-15.141,1.918c-3.678,0.926-7.615,2.295-11.325,4.464c-3.692,2.16-7.211,5.188-9.613,9.395   c-2.341,4.112-4.418,9.403-4.428,15.515c-0.036,5.816,2.061,12.258,7.06,18.02c0.63,0.731,1.303,1.453,2.02,2.166   c3.08,3.063,6.986,5.957,11.853,8.674C33.312,124.475,33.909,124.798,34.521,125.118z"/></g></svg>